<?xml version="1.0" encoding="UTF-8"?><svg id="Capa_1" xmlns="http://www.w3.org/2000/svg" viewBox="0 0 402.09 369.25"><defs><style>.cls-1{fill:#dcf6ff;}.cls-1,.cls-2,.cls-3,.cls-4,.cls-5,.cls-6,.cls-7,.cls-8,.cls-9,.cls-10,.cls-11,.cls-12,.cls-13,.cls-14,.cls-15,.cls-16,.cls-17,.cls-18,.cls-19{stroke-width:0px;}.cls-2{fill:#000;}.cls-3{fill:#fe9e90;}.cls-4{fill:#edceae;}.cls-5{fill:#d8b89a;}.cls-6{fill:#494138;}.cls-7{fill:#f97980;}.cls-8{fill:#666;}.cls-9{fill:#dbb9cc;}.cls-10{fill:#c6abbb;}.cls-11{fill:#edc4a9;}.cls-12{fill:#f85e6a;}.cls-13{fill:#111;}.cls-14{fill:#fff;}.cls-15{fill:#fac0aa;}.cls-16{fill:#846145;}.cls-17{fill:#7c5d41;}.cls-18{fill:#6d553d;}.cls-19{fill:#25211c;}</style></defs><rect class="cls-1" width="402.09" height="369.25"/><path class="cls-14" d="M30.92,48.85c11.18,3.26,26.55-31.5,43.91-17.28s13.28,27.49,31.66,21.37,37.59-29.11,56.58-16.85,24.56,29.87,36.33,28.98,42.46-22.85,54.43-11.62,14.83,20.94,20.81,32.68,33.72,25.74,3.51,33.29-92.09,17.77-92.05,5.51-23.44,17.01-42.34,5.7-33.7-16.93-38.81-21.02-1.02,12.26-21.45,8.68-31.66-24.51-38.81-25.53-19.4,29.62-28.09,11.74,11.23-35.23,6.13-40.85-4.09-18.38,8.17-14.81Z"/><path class="cls-14" d="M272.86,202.24c-11.18,3.26-26.55-31.5-43.91-17.28s-13.28,27.49-31.66,21.37c-18.38-6.13-37.59-29.11-56.58-16.85s-24.56,29.87-36.33,28.98-42.46-22.85-54.43-11.62c-11.97,11.23-14.83,20.94-20.81,32.68s-33.72,25.74-3.51,33.29c30.21,7.56,92.09,17.77,92.05,5.51-.05-12.26,23.44,17.01,42.34,5.7,18.89-11.31,33.7-16.93,38.81-21.02s1.02,12.26,21.45,8.68c20.43-3.57,31.66-24.51,38.81-25.53s19.4,29.62,28.09,11.74-11.23-35.23-6.13-40.85c5.11-5.62,4.09-18.38-8.17-14.81Z"/><path class="cls-14" d="M377,123.08c-11.18,3.26-26.55-31.5-43.91-17.28s-13.28,27.49-31.66,21.37c-18.38-6.13-37.59-29.11-56.58-16.85-18.99,12.26-24.56,29.87-36.33,28.98s-42.46-22.85-54.43-11.62c-11.97,11.23-14.83,20.94-20.81,32.68s-33.72,25.74-3.51,33.29c30.21,7.56,92.09,17.77,92.05,5.51-.05-12.26,23.44,17.01,42.34,5.7,18.89-11.31,33.7-16.93,38.81-21.02s1.02,12.26,21.45,8.68,31.66-24.51,38.81-25.53,19.4,29.62,28.09,11.74-11.23-35.23-6.13-40.85c5.11-5.62,4.09-18.38-8.17-14.81Z"/><path class="cls-17" d="M92.8,170.15s14.05,64.88,9.52,94.69-9.05,65.73-3.23,74.01,22.46,19.88,30.5,22.01,10.33-121.94,7.24-134.57c-3.09-12.63-11.84-63.32-24.47-67.13s-17.64,13.42-17.64,13.42"/><path class="cls-17" d="M305.71,167.18c.68-.47,1.21-1.56,1.91-1.41,1.26.26,1.42,4.2,1.47,5.33.45,10.72-12.39,62.61-12.9,90.78-.48,26.89,9.92,52.16,3.23,74.01-.93,3.05-2.87,8.22-7.64,12.09-7.62,6.2-19.67,6.81-26.1,3.97-22.25-9.85-12-76.58-4-128.62,8.5-55.33,16.7-65.72,24.47-67.13,5.91-1.07,15.96,13.49,19.56,10.99Z"/><path class="cls-18" d="M99.16,158.54s-4.06-79.49,45.83-99.57c49.89-20.08,96.04-21.62,128.28,20.73,32.25,42.35,32.43,87.82,32.43,87.82-8.76,21.45-13.24,40.48-15.67,54.8-3.8,22.41-8.84,52.08,0,86.49,5.14,20.01,10.15,22.82,7.36,30.77-7.19,20.48-47.69,25.19-97.76,25.19-70.51,0-100.16,3.57-88.01-56.68,12.15-60.25-3.55-98.41-12.46-149.55Z"/><path class="cls-2" d="M271.7,55.26c19.7,17.69,32.29,39.35,37.63,65.04,1.87,15.73,1.76,31.63.38,47.22-1.12,12.68-7.93,2.16-12.29,1.01-4.98-4.64-3.48-10.62-3.19-16.2,1.28-24.39-3.96-46.66-18.94-66.88-38.19-51.56-123.65-48.46-155.94,12.3-9.4,17.69-11.27,36.22-10.35,55.53.25,5.25,1.47,10.8-3.14,15.14-3.28,2.66-7.11,6.24-11.11,4.15-3.65-1.91-1.69-6.94-1.63-10.53.24-13.91-1.07-27.84.72-41.72,5.3-25.72,17.97-47.34,37.65-65.04,27.62-20.34,58.04-29.04,92.53-22.25,17.88,3.52,33.08,12.13,47.67,22.23Z"/><path class="cls-11" d="M285.56,148.85s20.67,3.46,20.67,21.77-20.37,28.73-20.37,28.73l-.3-50.5Z"/><path class="cls-11" d="M115.92,148.85s-20.67,3.46-20.67,21.77c0,18.3,20.37,28.73,20.37,28.73l.3-50.5Z"/><path class="cls-10" d="M248.9,299.73l-48.26-2.8s-14.91-18.6,1.76-18.6c15.6,0,44.02,2.22,47.59,2.5.24.02.37.03.37.03l-1.46,18.87Z"/><path class="cls-10" d="M152.04,299.73l48.26-2.8s14.91-18.6-1.76-18.6c-15.6,0-44.02,2.22-47.59,2.5-.24.02-.37.03-.37.03l1.46,18.87Z"/><polygon class="cls-4" points="173.71 323.14 196.07 369.25 207.22 369.25 229.76 321.79 173.71 323.14"/><path class="cls-4" d="M161.6,313.6c-.67-5.26-1.34-10.52-2.01-15.78,5.94-.36,11.88-.72,17.82-1.08,14.24,24.52,32.42,24.53,46.67,0,5.94.36,11.87.72,17.81,1.08-.85,5.15-1.71,10.3-2.57,15.46-2.99,4.58-5.97,9.16-8.96,13.74-21.7,15.78-37.56,15.78-59.23,0-3.18-4.47-6.36-8.94-9.53-13.41Z"/><path class="cls-4" d="M285.7,148.85c0-37.81-51.5-62.83-84.69-62.83-34.93,0-84.83,21.13-84.94,62.78h0l-.3,25.53.15-.02c-.05,8.35-.1,16.7-.15,25.05,2.28,33.47,26.72,63.48,59.51,73.1h0c17.08,6.09,34.16,6.1,51.23,0,0,0,0,0,0,0,32.98-9.79,57.22-39.58,59.49-73.11.71-10.49-.3-28.13-.3-50.5ZM263.63,152.16h.05s.03.06.04.1c-.03-.03-.06-.06-.09-.1Z"/><path class="cls-5" d="M224.09,296.73c-2.63,13.64-11.05,21.34-23.34,21.34-12.29,0-20.71-7.7-23.33-21.34-2.55-7.92.77-16.39-2.28-24.27,17.08,6.09,34.16,6.1,51.23,0-3.05,7.88.27,16.35-2.28,24.28Z"/><path class="cls-15" d="M207.22,198.7c-.23,4.57,1.16,10.65-6.89,10.5-7.23-.13-6.39-5.96-6.17-10.17.24-4.61-2.23-11.66,6.78-11.53,8.16.12,5.78,6.93,6.28,11.2Z"/><path class="cls-19" d="M143.42,146.53c1.03-1.23,2.43-2.07,4-2.39,8.36-1.7,19.62-1.12,28.56-.77,2.22.09,4.41.2,6.57.34.15,1.38.29,4.35-1.49,5.73-1.26.98-2.95.74-3.66.64-8.43-1.16-20.3-1.18-23.5-1.03-3.19.15-10.67,2.7-16.53,5.85-.36.19-.73-.25-.46-.57,2.08-2.47,4.41-5.31,6.5-7.8Z"/><path class="cls-19" d="M257.76,146.53c-1.03-1.23-2.43-2.07-4-2.39-8.36-1.7-19.62-1.12-28.56-.77-2.22.09-4.41.2-6.57.34-.15,1.38-.29,4.35,1.49,5.73,1.26.98,2.95.74,3.66.64,8.43-1.16,20.3-1.18,23.5-1.03,3.19.15,10.67,2.7,16.53,5.85.36.19.73-.25.46-.57-2.08-2.47-4.41-5.31-6.5-7.8Z"/><path class="cls-7" d="M182.02,237.68c11.58-12.07,25.73-12.06,37.24.02-12.42,5.45-24.83,5.52-37.24-.02Z"/><path class="cls-12" d="M182.02,237.68c12.41,0,24.82.02,37.24.02,1.31-.07,2.2-.12,3.74-.29-1.23,1.18-2.89,3.84-4.32,4.75-12.05,8.36-24.23,7.06-36.47.45-1.8-1.35-3.14-2.38-3.81-5.16,1.81.11,2.13.28,3.62.22Z"/><path class="cls-3" d="M182.2,242.62c12.18,1.86,24.36,3.12,36.47-.45-9.79,13.36-24.67,13.54-36.47.45Z"/><path class="cls-6" d="M178.63,170.61c-8.26-9.5-18.03-12.27-29.68-6.68h0c-3.04.71-5.75,1.81-6.37,5.45,3.14,2.7,5.52-1.66,8.41-.81,0,0,0,0,0,0,.44,6.17.64,12.76,8.47,14.21,7.28,1.35,11.37-2.18,12.69-9.52.59-3.28,2.72-.98,4.23-.38,2.12.61,3.13.11,2.25-2.26Z"/><path class="cls-8" d="M176.38,172.87c.75-.75,1.5-1.51,2.25-2.26,2.12,1.59,4.74,4.43,2.58,6.09-3.18,2.44-3.61-1.9-4.83-3.83Z"/><path class="cls-8" d="M222.8,170.56c.78.78,1.56,1.56,2.34,2.34-1.19,2.06-1.64,6.69-4.54,4.78-3.14-2.07-.09-5.12,2.2-7.12Z"/><path class="cls-6" d="M252.53,163.93s0,0,0,0h0c-11.65-5.6-21.42-2.74-29.73,6.63-.83,2.39.19,2.93,2.34,2.34,1.21-.85,3.58-1.97,3.79-.8,1.45,7.85,5.18,12.29,13.75,10.54,8.46-1.72,6.15-9.18,7.62-14.61,2.93-.71,6.08,5.15,8.13.76,1.19-2.56-3.05-4.14-5.89-4.87Z"/><path class="cls-17" d="M200.87,83.95c.25,2.49.33,6.55-1.37,10.87-6.69,16.97-30.94,12.61-53.94,32.07-13.32,11.27-18.91,24.35-20.65,23.32-2.45-1.45,10.16-26.34,8.78-27.04-.64-.32-4.09,4.6-6.71,10.03-4.65,9.65-5.42,18.31-5.63,20.85-1.92,23.98-7.4,56.51-2.59,79.09,4.21,19.79-2.84,27.89-2.84,27.89,0,0-3.77-45.9-8.4-63.77-4.64-17.87-1.48-58.36,7.96-78.45,3.93-8.35,18.51-34.73,45.29-42.44,5.9-1.7,23.21-6.68,35.17,2.46,2.33,1.78,3.92,3.69,4.95,5.1Z"/><path class="cls-17" d="M200.78,83.95c-.25,2.49-.33,6.55,1.37,10.87,6.69,16.97,30.94,12.61,53.94,32.07,13.32,11.27,18.91,24.35,20.65,23.32,2.45-1.45-10.16-26.34-8.78-27.04.64-.32,4.09,4.6,6.71,10.03,4.65,9.65,5.42,18.31,5.63,20.85,1.92,23.98,7.4,56.51,2.59,79.09-4.21,19.79,2.84,27.89,2.84,27.89,0,0,3.77-45.9,8.4-63.77,4.64-17.87,1.48-58.36-7.96-78.45-4.15-8.83-18.68-34.7-45.29-42.44-5.48-1.59-24.64-7.17-36.05,2.78-1.96,1.7-3.25,3.49-4.06,4.77Z"/><path class="cls-16" d="M200.82,89.56c.18,1.81.66,4.4,2.07,7.11,3.85,7.42,11.8,10.13,16.17,11.81,4.53,1.75,19.49,7.51,30.02,17.19,4.99,4.58,22.78,22.72,27.16,24.52.1.04.34.13.5.03,1.68-1.11-9.27-20.61-11.92-24.93-4.33-7.07-18.39-25.75-64-35.73Z"/><path class="cls-16" d="M200.82,89.56c-.18,1.81-.66,4.4-2.07,7.11-3.85,7.42-11.8,10.13-16.17,11.81-4.53,1.75-19.49,7.51-30.02,17.19-4.99,4.58-22.78,22.72-27.16,24.52-.1.04-.34.13-.5.03-1.68-1.11,9.27-20.61,11.92-24.93,4.33-7.07,18.39-25.75,64-35.73Z"/><path class="cls-13" d="M241.9,297.82l46.63,4.53s20.32,3.3,34.17,24.69c13.85,21.38,19.19,42.21,19.19,42.21h-141.46"/><path class="cls-13" d="M159.59,297.82l-46.63,4.53s-20.32,3.3-34.17,24.69c-13.85,21.38-19.19,42.21-19.19,42.21h141.46"/><path class="cls-9" d="M204.31,362.6l20.68-32.8,5.35,29.07s29.88-31.83,32.8-45.92,2.16-12.38,2.16-12.38c0,0-5.56-15.32-14.31-19.45s-46.67,81.48-46.67,81.48Z"/><path class="cls-9" d="M197.18,362.61l-20.68-32.81-5.35,29.07s-29.88-31.83-32.8-45.92c-2.92-14.09-2.16-12.38-2.16-12.38,0,0,5.56-15.32,14.31-19.45,8.75-4.13,46.68,81.5,46.68,81.5Z"/></svg>